# Blender 3.4.1
# www.blender.org
mtllib crystal_controller_right_button6.mtl
o crystal_controller_right_button6
v -0.018659 0.000429 0.052051
v -0.016201 -0.000574 0.050573
v -0.013163 -0.000574 0.050573
v -0.010705 0.000429 0.052051
v -0.009766 0.002053 0.054441
v -0.010705 0.003676 0.056832
v -0.013163 0.004679 0.058309
v -0.016201 0.004679 0.058309
v -0.018659 0.003676 0.056832
v -0.019598 0.002053 0.054441
v -0.017173 0.008941 0.047576
v -0.015633 0.008312 0.046652
v -0.013731 0.008312 0.046652
v -0.012191 0.008941 0.047576
v -0.011603 0.009957 0.049074
v -0.012191 0.010974 0.050570
v -0.013731 0.011602 0.051495
v -0.015633 0.011602 0.051495
v -0.017173 0.010974 0.050570
v -0.017761 0.009957 0.049074
v -0.014682 0.009833 0.049158
v -0.018659 0.008423 0.046622
v -0.018523 0.008597 0.046623
v -0.016201 0.007420 0.045144
v -0.016149 0.007629 0.045197
v -0.013163 0.007420 0.045144
v -0.013215 0.007629 0.045197
v -0.010705 0.008423 0.046622
v -0.010842 0.008597 0.046623
v -0.009766 0.010047 0.049013
v -0.009935 0.010166 0.048932
v -0.010705 0.011670 0.051403
v -0.010842 0.011732 0.051241
v -0.013163 0.012674 0.052880
v -0.013215 0.012701 0.052667
v -0.016201 0.012674 0.052880
v -0.016149 0.012701 0.052667
v -0.018659 0.011670 0.051403
v -0.018523 0.011732 0.051241
v -0.019598 0.010047 0.049013
v -0.019429 0.010166 0.048932
vn 0.1464 0.8052 -0.5747
vn 0.1320 0.8559 -0.4999
vn -0.0740 0.7937 -0.6038
vn -0.0914 0.8237 -0.5595
vn 0.0673 0.8923 -0.4463
vn -0.0283 0.7750 -0.6314
vn -0.0232 0.9004 -0.4345
vn 0.0282 0.7750 -0.6314
vn -0.1048 0.8770 -0.4689
vn 0.0740 0.7936 -0.6039
vn -0.1463 0.8312 -0.5364
vn 0.0914 0.8238 -0.5594
vn -0.1320 0.7804 -0.6112
vn 0.0740 0.8540 -0.5150
vn -0.0673 0.7440 -0.6648
vn 0.0283 0.8727 -0.4875
vn 0.0232 0.7359 -0.6767
vn -0.0282 0.8727 -0.4875
vn 0.1048 0.7593 -0.6422
vn -0.0740 0.8540 -0.5150
vn -0.0000 0.8272 -0.5619
vn -0.8089 -0.3172 -0.4950
vn -0.9999 0.0130 -0.0090
vn -0.3090 -0.5212 -0.7955
vn 0.3090 -0.5212 -0.7955
vn 0.8089 -0.3172 -0.4950
vn 0.9999 0.0130 -0.0088
vn 0.8089 0.3432 0.4774
vn 0.3090 0.5472 0.7779
vn -0.3090 0.5471 0.7779
vn -0.8089 0.3431 0.4774
vn -0.0000 -0.8273 0.5617
vn -0.0000 -0.8273 0.5618
vn -0.0000 -0.8272 0.5618
vt 0.531924 0.788865
vt 0.505290 0.784648
vt 0.486223 0.765580
vt 0.482004 0.738947
vt 0.494246 0.714921
vt 0.518272 0.702679
vt 0.544905 0.706897
vt 0.563972 0.725964
vt 0.568191 0.752597
vt 0.555949 0.776623
vt 0.632438 0.953070
vt 0.649628 0.965765
vt 0.670998 0.965932
vt 0.688384 0.953505
vt 0.695146 0.933233
vt 0.688701 0.912858
vt 0.671510 0.900163
vt 0.650141 0.899997
vt 0.632754 0.912423
vt 0.625992 0.932695
vt 0.660569 0.932964
vt 0.524285 0.766032
vt 0.617033 0.964073
vt 0.524371 0.763792
vt 0.512531 0.761685
vt 0.643633 0.983722
vt 0.513918 0.759924
vt 0.505577 0.751261
vt 0.676702 0.983983
vt 0.507734 0.750650
vt 0.506080 0.738739
vt 0.703609 0.964756
vt 0.508184 0.739514
vt 0.513847 0.728905
vt 0.714076 0.933387
vt 0.515093 0.730768
vt 0.525910 0.725513
vt 0.704105 0.901855
vt 0.525823 0.727753
vt 0.537663 0.729859
vt 0.677505 0.882207
vt 0.536277 0.731620
vt 0.544616 0.740284
vt 0.644436 0.881946
vt 0.542460 0.740894
vt 0.544113 0.752805
vt 0.617530 0.901172
vt 0.542009 0.752030
vt 0.536347 0.762640
vt 0.607062 0.932542
vt 0.535101 0.760777
s 1
usemtl crystal_controller2_group1_pasted__pCylinder5SG
f 20/20/1 11/11/2 23/23/3 41/50/4
f 11/11/2 12/12/5 25/26/6 23/23/3
f 12/12/5 13/13/7 27/29/8 25/26/6
f 13/13/7 14/14/9 29/32/10 27/29/8
f 14/14/9 15/15/11 31/35/12 29/32/10
f 15/15/11 16/16/13 33/38/14 31/35/12
f 16/16/13 17/17/15 35/41/16 33/38/14
f 17/17/15 18/18/17 37/44/18 35/41/16
f 18/18/17 19/19/19 39/47/20 37/44/18
f 19/19/19 20/20/1 41/50/4 39/47/20
f 11/11/2 20/20/1 21/21/21
f 12/12/5 11/11/2 21/21/21
f 13/13/7 12/12/5 21/21/21
f 14/14/9 13/13/7 21/21/21
f 15/15/11 14/14/9 21/21/21
f 16/16/13 15/15/11 21/21/21
f 17/17/15 16/16/13 21/21/21
f 18/18/17 17/17/15 21/21/21
f 19/19/19 18/18/17 21/21/21
f 20/20/1 19/19/19 21/21/21
f 23/24/3 22/22/22 40/49/23 41/51/4
f 22/22/22 23/24/3 25/27/6 24/25/24
f 24/25/24 25/27/6 27/30/8 26/28/25
f 26/28/25 27/30/8 29/33/10 28/31/26
f 28/31/26 29/33/10 31/36/12 30/34/27
f 30/34/27 31/36/12 33/39/14 32/37/28
f 32/37/28 33/39/14 35/42/16 34/40/29
f 34/40/29 35/42/16 37/45/18 36/43/30
f 36/43/30 37/45/18 39/48/20 38/46/31
f 38/46/31 39/48/20 41/51/4 40/49/23
f 40/49/23 22/22/22 1/1/32 10/10/33
f 2/2/34 1/1/32 22/22/22 24/25/24
f 3/3/33 2/2/34 24/25/24 26/28/25
f 4/4/33 3/3/33 26/28/25 28/31/26
f 5/5/32 4/4/33 28/31/26 30/34/27
f 6/6/33 5/5/32 30/34/27 32/37/28
f 7/7/32 6/6/33 32/37/28 34/40/29
f 8/8/33 7/7/32 34/40/29 36/43/30
f 9/9/32 8/8/33 36/43/30 38/46/31
f 10/10/33 9/9/32 38/46/31 40/49/23
