# Blender 3.4.1
# www.blender.org
mtllib crystal_controller_right_button7.mtl
o crystal_controller_right_button7
v -0.004678 0.001085 0.050399
v -0.002220 0.000082 0.048921
v 0.000819 0.000082 0.048921
v 0.003277 0.001085 0.050399
v 0.004216 0.002709 0.052789
v 0.003277 0.004331 0.055180
v 0.000819 0.005335 0.056658
v -0.002220 0.005335 0.056658
v -0.004678 0.004331 0.055180
v -0.005617 0.002709 0.052789
v -0.004678 0.009219 0.044875
v -0.002220 0.008216 0.043398
v 0.000819 0.008216 0.043398
v 0.003277 0.009219 0.044875
v 0.004216 0.010843 0.047266
v 0.003277 0.012466 0.049656
v 0.000819 0.013470 0.051134
v -0.002220 0.013470 0.051134
v -0.004678 0.012466 0.049656
v -0.005617 0.010843 0.047266
v -0.001900 0.011526 0.045749
v -0.001159 0.011223 0.045303
v -0.000243 0.011223 0.045303
v 0.000499 0.011526 0.045749
v 0.000782 0.012016 0.046469
v 0.000499 0.012505 0.047190
v -0.000243 0.012808 0.047636
v -0.001159 0.012808 0.047636
v -0.001900 0.012505 0.047190
v -0.002183 0.012016 0.046469
v -0.000701 0.012057 0.046441
v -0.004542 0.009822 0.044585
v -0.002168 0.008853 0.043158
v 0.000767 0.008853 0.043158
v 0.003141 0.009822 0.044585
v 0.004048 0.011391 0.046894
v 0.003141 0.012959 0.049203
v 0.000767 0.013927 0.050631
v -0.002168 0.013927 0.050631
v -0.004542 0.012959 0.049203
v -0.005449 0.011391 0.046894
vn -0.8090 -0.3268 -0.4886
vn -0.8090 -0.3302 -0.4863
vn -1.0000 -0.0000 -0.0000
vn -1.0000 0.0033 -0.0022
vn -0.3090 -0.5309 -0.7891
vn -0.3090 -0.5343 -0.7868
vn 0.3090 -0.5309 -0.7891
vn 0.3090 -0.5343 -0.7868
vn 0.8090 -0.3268 -0.4886
vn 0.8090 -0.3302 -0.4863
vn 1.0000 0.0033 -0.0022
vn 1.0000 -0.0000 -0.0000
vn 0.8091 0.3334 0.4839
vn 0.8090 0.3302 0.4862
vn 0.3091 0.5376 0.7845
vn 0.3091 0.5342 0.7868
vn -0.3091 0.5376 0.7845
vn -0.3091 0.5342 0.7868
vn -0.8091 0.3334 0.4839
vn -0.8090 0.3302 0.4862
vn -0.1278 0.8317 -0.5403
vn -0.1153 0.7873 -0.6056
vn -0.4624 0.4902 -0.7389
vn -0.9215 0.3214 -0.2182
vn -0.0588 0.7555 -0.6525
vn -0.1766 0.3735 -0.9107
vn 0.0202 0.7485 -0.6628
vn 0.1766 0.3735 -0.9107
vn 0.0915 0.7689 -0.6328
vn 0.4624 0.4902 -0.7389
vn 0.1278 0.8090 -0.5738
vn 0.5715 0.6789 -0.4610
vn 0.1153 0.8534 -0.5084
vn 0.4624 0.8676 -0.1831
vn 0.0588 0.8851 -0.4617
vn 0.1766 0.9842 -0.0113
vn -0.0202 0.8921 -0.4514
vn -0.1766 0.9842 -0.0113
vn -0.0915 0.8717 -0.4814
vn -0.4624 0.8676 -0.1831
vn -0.0000 0.8272 -0.5620
vt 0.200884 0.700699
vt 0.176399 0.688182
vt 0.163855 0.663629
vt 0.168105 0.636414
vt 0.187545 0.616843
vt 0.214839 0.612426
vt 0.239536 0.624961
vt 0.252079 0.649609
vt 0.247773 0.676862
vt 0.228184 0.696447
vt 0.202485 0.676984
vt 0.191149 0.669998
vt 0.186713 0.657543
vt 0.190174 0.644803
vt 0.200445 0.636452
vt 0.213703 0.635687
vt 0.224840 0.642967
vt 0.229227 0.655516
vt 0.226200 0.668578
vt 0.215742 0.676943
vt 0.783217 0.948655
vt 0.791590 0.955045
vt 0.802120 0.955292
vt 0.810785 0.949303
vt 0.814274 0.939364
vt 0.811255 0.929273
vt 0.802882 0.922884
vt 0.792351 0.922637
vt 0.783687 0.928626
vt 0.780198 0.938564
vt 0.797236 0.938964
vt 0.751145 0.970789
vt 0.202862 0.674510
vt 0.778654 0.991802
vt 0.193281 0.668215
vt 0.813260 0.992633
vt 0.189319 0.657399
vt 0.841745 0.972965
vt 0.192430 0.646228
vt 0.853229 0.940309
vt 0.201427 0.638910
vt 0.843327 0.907140
vt 0.213022 0.638250
vt 0.815818 0.886127
vt 0.222730 0.644601
vt 0.781212 0.885296
vt 0.226729 0.655180
vt 0.752727 0.904964
vt 0.224001 0.667190
vt 0.741242 0.937620
vt 0.214868 0.674477
s 1
usemtl crystal_controller2_group1_pasted__pCylinder5SG
f 11/11/1 1/1/2 10/10/3 20/20/4
f 1/1/2 11/11/1 12/12/5 2/2/6
f 2/2/6 12/12/5 13/13/7 3/3/8
f 3/3/8 13/13/7 14/14/9 4/4/10
f 4/4/10 14/14/9 15/15/11 5/5/12
f 5/5/12 15/15/11 16/16/13 6/6/14
f 6/6/14 16/16/13 17/17/15 7/7/16
f 7/7/16 17/17/15 18/18/17 8/8/18
f 8/8/18 18/18/17 19/19/19 9/9/20
f 9/9/20 19/19/19 20/20/4 10/10/3
f 30/30/21 21/21/22 32/32/23 41/50/24
f 21/21/22 22/22/25 33/34/26 32/32/23
f 22/22/25 23/23/27 34/36/28 33/34/26
f 23/23/27 24/24/29 35/38/30 34/36/28
f 24/24/29 25/25/31 36/40/32 35/38/30
f 25/25/31 26/26/33 37/42/34 36/40/32
f 26/26/33 27/27/35 38/44/36 37/42/34
f 27/27/35 28/28/37 39/46/38 38/44/36
f 28/28/37 29/29/39 40/48/40 39/46/38
f 29/29/39 30/30/21 41/50/24 40/48/40
f 21/21/22 30/30/21 31/31/41
f 22/22/25 21/21/22 31/31/41
f 23/23/27 22/22/25 31/31/41
f 24/24/29 23/23/27 31/31/41
f 25/25/31 24/24/29 31/31/41
f 26/26/33 25/25/31 31/31/41
f 27/27/35 26/26/33 31/31/41
f 28/28/37 27/27/35 31/31/41
f 29/29/39 28/28/37 31/31/41
f 30/30/21 29/29/39 31/31/41
f 11/11/1 20/20/4 41/51/24 32/33/23
f 12/12/5 11/11/1 32/33/23 33/35/26
f 13/13/7 12/12/5 33/35/26 34/37/28
f 14/14/9 13/13/7 34/37/28 35/39/30
f 15/15/11 14/14/9 35/39/30 36/41/32
f 16/16/13 15/15/11 36/41/32 37/43/34
f 17/17/15 16/16/13 37/43/34 38/45/36
f 18/18/17 17/17/15 38/45/36 39/47/38
f 19/19/19 18/18/17 39/47/38 40/49/40
f 20/20/4 19/19/19 40/49/40 41/51/24
