# Blender 3.4.1
# www.blender.org
mtllib status_right.mtl
o status_right
v 0.016518 0.014704 0.092332
v 0.014056 0.014972 0.104750
v 0.012118 0.013668 0.116186
v 0.006351 0.020535 0.102793
v 0.004622 0.019377 0.114244
v 0.008211 0.020553 0.090948
v -0.000257 0.020292 0.090277
v -0.001486 0.019543 0.101334
v -0.005166 0.013653 0.090644
v -0.006089 0.013742 0.101325
v -0.002666 0.018403 0.113414
v -0.006951 0.013176 0.113642
vn 0.7682 0.5912 0.2456
vn 0.5562 0.8026 0.2156
vn 0.5586 0.8164 0.1461
vn 0.7761 0.6057 0.1753
vn 0.7811 0.6014 0.1681
vn 0.5681 0.8148 0.1161
vn 0.5676 0.8206 0.0665
vn 0.7872 0.6067 0.1107
vn -0.5061 0.8607 0.0543
vn -0.4894 0.8719 -0.0163
vn -0.1093 0.9925 0.0538
vn -0.1411 0.9829 0.1181
vn -0.4922 0.8686 0.0575
vn -0.8653 0.5010 -0.0170
vn -0.8672 0.4942 -0.0606
vn -0.4786 0.8780 0.0062
vn -0.5502 0.8350 0.0018
vn -0.9042 0.4248 -0.0441
vn -0.8792 0.4704 -0.0749
vn -0.4838 0.8750 -0.0190
vn -0.4767 0.8790 -0.0080
vn -0.4311 0.9009 -0.0497
vn -0.0425 0.9991 -0.0044
vn -0.0987 0.9942 0.0429
vt 1.001633 0.998466
vt 0.999978 0.498457
vt 0.998358 -0.001514
vt 0.702036 0.498913
vt 0.703054 -0.000497
vt 0.698475 0.999195
vt 0.344652 1.000455
vt 0.340725 0.501504
vt 0.001691 1.001693
vt 0.000036 0.501660
vt 0.340394 0.000862
vt -0.001610 0.001778
s 0
usemtl status
f 3/3/1 2/2/4 4/4/3 5/5/2
f 2/2/5 1/1/8 6/6/7 4/4/6
f 11/11/9 5/5/12 4/4/11 8/8/10
f 11/11/13 8/8/16 10/10/15 12/12/14
f 8/8/17 7/7/20 9/9/19 10/10/18
f 8/8/21 4/4/24 6/6/23 7/7/22
