# Blender 3.4.1
# www.blender.org
mtllib crystal_controller_left_button2.mtl
o crystal_controller_left_button2
v 0.005138 0.001321 0.050585
v 0.002680 0.000308 0.049114
v -0.000359 0.000308 0.049114
v -0.002817 0.001321 0.050585
v -0.003756 0.002960 0.052965
v -0.002817 0.004599 0.055344
v -0.000359 0.005612 0.056815
v 0.002680 0.005612 0.056815
v 0.005138 0.004599 0.055344
v 0.006077 0.002960 0.052965
v 0.005138 0.009418 0.045007
v 0.002680 0.008405 0.043536
v -0.000359 0.008405 0.043536
v -0.002817 0.009418 0.045007
v -0.003756 0.011058 0.047387
v -0.002817 0.012696 0.049767
v -0.000359 0.013710 0.051237
v 0.002680 0.013710 0.051237
v 0.005138 0.012696 0.049767
v 0.006077 0.011058 0.047387
v 0.002360 0.011731 0.045865
v 0.001619 0.011425 0.045422
v 0.000703 0.011425 0.045422
v -0.000039 0.011731 0.045865
v -0.000322 0.012225 0.046582
v -0.000039 0.012719 0.047300
v 0.000703 0.013025 0.047744
v 0.001619 0.013025 0.047744
v 0.002360 0.012719 0.047300
v 0.002643 0.012225 0.046582
v 0.001161 0.012267 0.046554
v 0.005002 0.010019 0.044713
v 0.002628 0.009041 0.043293
v -0.000307 0.009041 0.043293
v -0.002681 0.010019 0.044713
v -0.003588 0.011603 0.047012
v -0.002681 0.013186 0.049310
v -0.000307 0.014164 0.050731
v 0.002628 0.014164 0.050731
v 0.005002 0.013186 0.049310
v 0.005909 0.011603 0.047012
vn 0.8091 -0.3334 -0.4840
vn 0.8090 -0.3301 -0.4864
vn 1.0000 0.0033 -0.0022
vn 1.0000 -0.0000 -0.0000
vn 0.3091 -0.5395 -0.7832
vn 0.3090 -0.5362 -0.7855
vn -0.3091 -0.5395 -0.7832
vn -0.3090 -0.5362 -0.7855
vn -0.8091 -0.3334 -0.4840
vn -0.8090 -0.3301 -0.4864
vn -1.0000 -0.0000 -0.0000
vn -1.0000 0.0033 -0.0022
vn -0.8090 0.3334 0.4841
vn -0.8090 0.3367 0.4818
vn -0.3090 0.5395 0.7832
vn -0.3090 0.5428 0.7809
vn 0.3090 0.5395 0.7832
vn 0.3090 0.5428 0.7809
vn 0.8090 0.3334 0.4841
vn 0.8090 0.3367 0.4818
vn 0.1153 0.7833 -0.6109
vn 0.1278 0.8281 -0.5458
vn 0.9215 0.3199 -0.2203
vn 0.4624 0.4852 -0.7422
vn 0.0588 0.7512 -0.6575
vn 0.1766 0.3674 -0.9131
vn -0.0202 0.7441 -0.6678
vn -0.1766 0.3674 -0.9132
vn -0.0915 0.7647 -0.6379
vn -0.4624 0.4852 -0.7422
vn -0.1278 0.8051 -0.5792
vn -0.5715 0.6758 -0.4655
vn -0.1153 0.8499 -0.5141
vn -0.4623 0.8664 -0.1888
vn -0.0588 0.8820 -0.4676
vn -0.1765 0.9841 -0.0178
vn 0.0202 0.8891 -0.4573
vn 0.1766 0.9841 -0.0179
vn 0.0915 0.8685 -0.4872
vn 0.4623 0.8664 -0.1888
vn -0.0000 0.8235 -0.5673
vt 0.200884 0.700699
vt 0.176399 0.688182
vt 0.163855 0.663629
vt 0.168105 0.636414
vt 0.187545 0.616843
vt 0.214839 0.612426
vt 0.239536 0.624961
vt 0.252079 0.649609
vt 0.247773 0.676862
vt 0.228184 0.696447
vt 0.202485 0.676984
vt 0.191149 0.669998
vt 0.186713 0.657543
vt 0.190175 0.644803
vt 0.200445 0.636452
vt 0.213703 0.635687
vt 0.224840 0.642967
vt 0.229227 0.655516
vt 0.226200 0.668578
vt 0.215742 0.676943
vt 0.284039 0.948655
vt 0.292412 0.955045
vt 0.302943 0.955292
vt 0.311607 0.949303
vt 0.315097 0.939364
vt 0.312078 0.929273
vt 0.303704 0.922884
vt 0.293174 0.922637
vt 0.284509 0.928626
vt 0.281020 0.938564
vt 0.298059 0.938964
vt 0.251968 0.970789
vt 0.202862 0.674510
vt 0.279476 0.991802
vt 0.193281 0.668214
vt 0.314082 0.992633
vt 0.189319 0.657399
vt 0.342568 0.972965
vt 0.192430 0.646228
vt 0.354052 0.940309
vt 0.201427 0.638910
vt 0.344149 0.907140
vt 0.213022 0.638250
vt 0.316641 0.886127
vt 0.222731 0.644601
vt 0.282034 0.885296
vt 0.226729 0.655180
vt 0.253549 0.904964
vt 0.224001 0.667190
vt 0.242065 0.937620
vt 0.214868 0.674477
s 1
usemtl crystal_controller2_group1_pasted__pCylinder5SG
f 1/1/1 11/11/2 20/20/3 10/10/4
f 11/11/2 1/1/1 2/2/5 12/12/6
f 12/12/6 2/2/5 3/3/7 13/13/8
f 13/13/8 3/3/7 4/4/9 14/14/10
f 14/14/10 4/4/9 5/5/11 15/15/12
f 15/15/12 5/5/11 6/6/13 16/16/14
f 16/16/14 6/6/13 7/7/15 17/17/16
f 17/17/16 7/7/15 8/8/17 18/18/18
f 18/18/18 8/8/17 9/9/19 19/19/20
f 19/19/20 9/9/19 10/10/4 20/20/3
f 21/21/21 30/30/22 41/50/23 32/32/24
f 22/22/25 21/21/21 32/32/24 33/34/26
f 23/23/27 22/22/25 33/34/26 34/36/28
f 24/24/29 23/23/27 34/36/28 35/38/30
f 25/25/31 24/24/29 35/38/30 36/40/32
f 26/26/33 25/25/31 36/40/32 37/42/34
f 27/27/35 26/26/33 37/42/34 38/44/36
f 28/28/37 27/27/35 38/44/36 39/46/38
f 29/29/39 28/28/37 39/46/38 40/48/40
f 30/30/22 29/29/39 40/48/40 41/50/23
f 30/30/22 21/21/21 31/31/41
f 31/31/41 21/21/21 22/22/25
f 31/31/41 22/22/25 23/23/27
f 31/31/41 23/23/27 24/24/29
f 31/31/41 24/24/29 25/25/31
f 31/31/41 25/25/31 26/26/33
f 31/31/41 26/26/33 27/27/35
f 31/31/41 27/27/35 28/28/37
f 31/31/41 28/28/37 29/29/39
f 31/31/41 29/29/39 30/30/22
f 32/33/24 11/11/2 12/12/6 33/35/26
f 33/35/26 12/12/6 13/13/8 34/37/28
f 34/37/28 13/13/8 14/14/10 35/39/30
f 35/39/30 14/14/10 15/15/12 36/41/32
f 36/41/32 15/15/12 16/16/14 37/43/34
f 37/43/34 16/16/14 17/17/16 38/45/36
f 38/45/36 17/17/16 18/18/18 39/47/38
f 39/47/38 18/18/18 19/19/20 40/49/40
f 40/49/40 19/19/20 20/20/3 41/51/23
f 41/51/23 20/20/3 11/11/2 32/33/24
