# Blender 3.4.1
# www.blender.org
mtllib crystal_controller_left_button3.mtl
o crystal_controller_left_button3
v -0.007675 -0.004299 0.032255
v -0.012430 -0.006242 0.029400
v -0.018308 -0.006242 0.029400
v -0.023064 -0.004299 0.032255
v -0.024880 -0.001153 0.036878
v -0.023064 0.001992 0.041499
v -0.018308 0.003936 0.044355
v -0.012430 0.003936 0.044355
v -0.007675 0.001992 0.041499
v -0.005859 -0.001153 0.036878
v -0.008161 -0.002902 0.031732
v -0.012616 -0.004722 0.029056
v -0.018123 -0.004722 0.029056
v -0.022578 -0.002902 0.031732
v -0.024279 0.000045 0.036062
v -0.022578 0.002991 0.040391
v -0.018123 0.004813 0.043067
v -0.012616 0.004813 0.043067
v -0.008161 0.002991 0.040391
v -0.006459 0.000045 0.036062
v -0.008824 -0.001525 0.031377
v -0.012869 -0.003178 0.028948
v -0.017868 -0.003178 0.028948
v -0.021914 -0.001525 0.031377
v -0.023460 0.001152 0.035309
v -0.021914 0.003827 0.039240
v -0.017868 0.005481 0.041670
v -0.012869 0.005481 0.041670
v -0.008824 0.003827 0.039240
v -0.007279 0.001152 0.035309
v -0.008781 0.006896 0.031469
v -0.010039 0.004717 0.028267
v -0.013333 0.003371 0.026289
v -0.017405 0.003371 0.026289
v -0.020699 0.004717 0.028267
v -0.021958 0.006896 0.031469
v -0.020699 0.009075 0.034670
v -0.017405 0.010422 0.036648
v -0.013333 0.010422 0.036648
v -0.010039 0.009075 0.034670
v -0.010114 0.006868 0.031492
v -0.011118 0.005130 0.028938
v -0.013744 0.004056 0.027360
v -0.016993 0.004056 0.027360
v -0.019621 0.005130 0.028938
v -0.020624 0.006868 0.031492
v -0.019621 0.008607 0.034045
v -0.016993 0.009680 0.035623
v -0.013744 0.009680 0.035623
v -0.011118 0.008607 0.034045
v -0.015369 0.007628 0.031002
v -0.017696 0.009853 0.038070
v -0.021459 0.008314 0.035809
v -0.022897 0.005825 0.032152
v -0.021459 0.003335 0.028494
v -0.017696 0.001797 0.026233
v -0.013043 0.001797 0.026233
v -0.009279 0.003335 0.028494
v -0.007842 0.005825 0.032152
v -0.009279 0.008314 0.035809
v -0.013043 0.009853 0.038070
v -0.008752 0.004675 0.032886
v -0.008218 0.004834 0.032785
v -0.007791 0.005218 0.032540
v -0.010020 0.002489 0.029674
v -0.009586 0.002472 0.029310
v -0.009238 0.002717 0.028854
v -0.013327 0.001140 0.027691
v -0.013161 0.001013 0.027164
v -0.013027 0.001170 0.026576
v -0.017411 0.001141 0.027692
v -0.017578 0.001013 0.027164
v -0.017711 0.001170 0.026576
v -0.020716 0.002489 0.029675
v -0.021152 0.002472 0.029310
v -0.021501 0.002717 0.028854
v -0.021983 0.004675 0.032886
v -0.022520 0.004834 0.032785
v -0.022948 0.005218 0.032540
v -0.020725 0.006864 0.036103
v -0.021156 0.007198 0.036262
v -0.021501 0.007720 0.036225
v -0.017416 0.008220 0.038095
v -0.017580 0.008659 0.038412
v -0.017711 0.009266 0.038503
v -0.013321 0.008220 0.038095
v -0.013158 0.008659 0.038412
v -0.013027 0.009266 0.038503
v -0.010012 0.006865 0.036104
v -0.009582 0.007198 0.036262
v -0.009238 0.007720 0.036225
v -0.021205 0.008823 0.035266
v -0.022581 0.006438 0.031762
v -0.021205 0.004052 0.028257
v -0.017598 0.002578 0.026089
v -0.013140 0.002578 0.026089
v -0.009534 0.004052 0.028257
v -0.008156 0.006438 0.031762
v -0.009534 0.008823 0.035266
v -0.013140 0.010297 0.037433
v -0.017598 0.010297 0.037433
v -0.020128 0.008839 0.034343
v -0.021253 0.006894 0.031484
v -0.020128 0.004948 0.028624
v -0.017187 0.003745 0.026858
v -0.013551 0.003745 0.026858
v -0.010610 0.004948 0.028624
v -0.009486 0.006894 0.031484
v -0.010610 0.008839 0.034343
v -0.013551 0.010041 0.036110
v -0.017187 0.010041 0.036110
v -0.010937 0.003689 0.033581
v -0.011783 0.002223 0.031428
v -0.014000 0.001318 0.030096
v -0.016738 0.001317 0.030096
v -0.018955 0.002223 0.031428
v -0.019802 0.003689 0.033581
v -0.018955 0.005155 0.035735
v -0.016738 0.006061 0.037066
v -0.014000 0.006061 0.037066
v -0.011784 0.005155 0.035735
v -0.010913 0.004870 0.032753
v -0.011764 0.003396 0.030588
v -0.013992 0.002485 0.029250
v -0.016746 0.002485 0.029250
v -0.018974 0.003396 0.030588
v -0.019825 0.004870 0.032753
v -0.018975 0.006344 0.034918
v -0.016747 0.007255 0.036257
v -0.013992 0.007255 0.036257
v -0.011764 0.006344 0.034919
vn 0.9239 0.3165 -0.2153
vn 0.7474 0.0109 -0.6643
vn 0.7231 0.0751 -0.6867
vn 0.8942 0.3701 -0.2519
vn 0.2855 -0.1780 -0.9417
vn 0.2762 -0.1083 -0.9550
vn -0.2854 -0.1781 -0.9417
vn -0.2763 -0.1082 -0.9550
vn -0.7473 0.0110 -0.6643
vn -0.7234 0.0747 -0.6864
vn -0.9237 0.3167 -0.2154
vn -0.8941 0.3703 -0.2520
vn -0.7473 0.6222 0.2334
vn -0.7234 0.6659 0.1824
vn -0.2854 0.8109 0.5109
vn -0.2764 0.8486 0.4510
vn 0.2855 0.8109 0.5108
vn 0.2763 0.8486 0.4511
vn 0.7473 0.6221 0.2334
vn 0.7234 0.6658 0.1825
vn 0.6588 0.2105 -0.7223
vn 0.8143 0.4798 -0.3265
vn 0.2517 0.0441 -0.9668
vn -0.2516 0.0441 -0.9668
vn -0.6588 0.2105 -0.7223
vn -0.8143 0.4799 -0.3265
vn -0.6588 0.7491 0.0691
vn -0.2516 0.9156 0.3137
vn 0.2516 0.9156 0.3137
vn 0.6588 0.7491 0.0691
vn 0.4654 0.4863 -0.7395
vn 0.1780 0.3679 -0.9127
vn -0.1780 0.3678 -0.9127
vn -0.4654 0.4862 -0.7396
vn -0.5740 0.6771 -0.4605
vn -0.4634 0.8671 -0.1827
vn -0.1767 0.9842 -0.0115
vn 0.1768 0.9842 -0.0115
vn 0.4634 0.8671 -0.1827
vn 0.5740 0.6771 -0.4605
vn 0.5476 0.6922 -0.4701
vn 0.4394 0.5153 -0.7358
vn -0.2786 0.8901 -0.3608
vn -0.3472 0.7753 -0.5276
vn 0.1670 0.4074 -0.8979
vn -0.1059 0.9600 -0.2591
vn -0.1670 0.4074 -0.8979
vn 0.1059 0.9600 -0.2591
vn -0.4394 0.5153 -0.7358
vn 0.2786 0.8900 -0.3608
vn -0.5476 0.6922 -0.4701
vn 0.3472 0.7753 -0.5276
vn -0.4467 0.8721 -0.1999
vn 0.2832 0.6587 -0.6971
vn -0.1715 0.9847 -0.0307
vn 0.1087 0.5857 -0.8032
vn 0.1715 0.9847 -0.0307
vn -0.1087 0.5856 -0.8033
vn 0.4467 0.8721 -0.1999
vn -0.2832 0.6587 -0.6971
vn 0.2158 0.7081 -0.6724
vn 0.2682 0.7960 -0.5426
vn 0.0822 0.6542 -0.7518
vn -0.0822 0.6542 -0.7518
vn -0.2158 0.7081 -0.6723
vn -0.2681 0.7961 -0.5426
vn -0.2181 0.8849 -0.4115
vn -0.0836 0.9404 -0.3297
vn 0.0835 0.9404 -0.3297
vn 0.2180 0.8850 -0.4115
vn -0.0000 0.8268 -0.5624
vn -0.3019 0.6985 0.6488
vn -0.2553 0.9074 0.3339
vn -0.6653 0.7422 0.0805
vn -0.7886 0.5066 0.3486
vn -0.8161 0.4782 -0.3245
vn -0.9710 0.1979 -0.1344
vn -0.6552 0.2180 -0.7233
vn -0.7822 -0.1083 -0.6135
vn -0.2490 0.0593 -0.9667
vn -0.2980 -0.2962 -0.9074
vn 0.2490 0.0593 -0.9667
vn 0.2980 -0.2962 -0.9074
vn 0.6551 0.2181 -0.7234
vn 0.7822 -0.1083 -0.6135
vn 0.8161 0.4781 -0.3246
vn 0.9710 0.1979 -0.1344
vn 0.6653 0.7422 0.0805
vn 0.7886 0.5066 0.3486
vn 0.2553 0.9074 0.3339
vn 0.3019 0.6985 0.6488
vn 0.9581 -0.2375 0.1603
vn 0.7774 -0.5452 -0.3136
vn 0.2976 -0.7363 -0.6077
vn -0.2973 -0.7364 -0.6077
vn -0.7774 -0.5455 -0.3132
vn -0.9579 -0.2380 0.1603
vn -0.7727 0.0678 0.6311
vn -0.2945 0.2558 0.9208
vn 0.2946 0.2560 0.9207
vn 0.7727 0.0681 0.6311
vn 0.5795 -0.6747 0.4571
vn 0.0120 -0.8268 0.5623
vn 0.0110 -0.8313 0.5557
vn 0.4727 -0.8645 0.1710
vn 0.4649 -0.4880 0.7387
vn 0.0084 -0.8234 0.5674
vn 0.1813 -0.9834 -0.0078
vn 0.0045 -0.8345 0.5509
vn -0.1813 -0.9834 -0.0074
vn -0.0045 -0.8345 0.5509
vn -0.4719 -0.8648 0.1718
vn -0.0110 -0.8313 0.5557
vn -0.5785 -0.6753 0.4575
vn -0.0120 -0.8268 0.5623
vn -0.4642 -0.4889 0.7386
vn -0.0085 -0.8234 0.5674
vn -0.1765 -0.3749 0.9101
vn -0.0029 -0.8218 0.5698
vn 0.1765 -0.3744 0.9103
vn 0.0029 -0.8218 0.5698
vn 0.0529 -0.8255 0.5619
vn 0.0427 -0.8431 0.5361
vn 0.0163 -0.8538 0.5203
vn -0.0163 -0.8538 0.5203
vn -0.0428 -0.8431 0.5361
vn -0.0530 -0.8256 0.5618
vn -0.0430 -0.8080 0.5876
vn -0.0164 -0.7971 0.6036
vn 0.0164 -0.7971 0.6037
vn 0.0429 -0.8080 0.5876
vt 0.711521 0.405204
vt 0.691509 0.384733
vt 0.687309 0.356402
vt 0.700469 0.331048
vt 0.725932 0.317960
vt 0.754542 0.322317
vt 0.775155 0.343004
vt 0.779449 0.371739
vt 0.765939 0.397633
vt 0.739800 0.410279
vt 0.714075 0.400501
vt 0.696432 0.382319
vt 0.692717 0.357304
vt 0.704275 0.334811
vt 0.726921 0.323221
vt 0.752223 0.327159
vt 0.770367 0.345389
vt 0.774159 0.370892
vt 0.762275 0.393710
vt 0.739196 0.404960
vt 0.716497 0.396104
vt 0.700930 0.380106
vt 0.697662 0.358133
vt 0.707868 0.338318
vt 0.727772 0.328185
vt 0.749964 0.331677
vt 0.765896 0.347647
vt 0.769299 0.370057
vt 0.758777 0.390073
vt 0.738548 0.399966
vt 0.735567 0.377758
vt 0.727100 0.376337
vt 0.721087 0.370220
vt 0.719808 0.361725
vt 0.723777 0.354121
vt 0.731447 0.350283
vt 0.739925 0.351685
vt 0.745959 0.357808
vt 0.747229 0.366291
vt 0.743267 0.373923
vt 0.735167 0.374902
vt 0.728458 0.373778
vt 0.723688 0.368929
vt 0.722679 0.362206
vt 0.725822 0.356174
vt 0.731903 0.353134
vt 0.738618 0.354248
vt 0.743393 0.359096
vt 0.744403 0.365824
vt 0.741265 0.371863
vt 0.733613 0.364011
vt 0.748812 0.356326
vt 0.741313 0.348766
vt 0.730832 0.347074
vt 0.721384 0.351847
vt 0.716514 0.361219
vt 0.718098 0.371649
vt 0.725477 0.379209
vt 0.735919 0.381003
vt 0.745451 0.376300
vt 0.750376 0.366853
vt 0.736262 0.384277
vt 0.736157 0.383434
vt 0.736046 0.382367
vt 0.723844 0.382076
vt 0.724255 0.381324
vt 0.724788 0.380390
vt 0.715122 0.373068
vt 0.715893 0.372691
vt 0.716864 0.372227
vt 0.713188 0.360705
vt 0.714065 0.360849
vt 0.715149 0.361019
vt 0.718980 0.349579
vt 0.719595 0.350179
vt 0.720379 0.350918
vt 0.730200 0.343837
vt 0.730347 0.344677
vt 0.730554 0.345731
vt 0.742719 0.345791
vt 0.742344 0.346550
vt 0.741886 0.347517
vt 0.751727 0.354800
vt 0.750976 0.355186
vt 0.750028 0.355680
vt 0.753552 0.367418
vt 0.752747 0.367284
vt 0.751715 0.367102
vt 0.747664 0.378726
vt 0.747085 0.378112
vt 0.746366 0.377324
vt 0.740653 0.350180
vt 0.731141 0.348619
vt 0.722545 0.352934
vt 0.718104 0.361458
vt 0.719540 0.370966
vt 0.726269 0.377830
vt 0.735762 0.379436
vt 0.744406 0.375145
vt 0.748859 0.366577
vt 0.747437 0.357047
vt 0.739276 0.352994
vt 0.731700 0.351738
vt 0.724843 0.355167
vt 0.721296 0.361968
vt 0.722436 0.369558
vt 0.727815 0.375026
vt 0.735383 0.376294
vt 0.742263 0.372866
vt 0.745802 0.366050
vt 0.744664 0.358465
vt 0.737001 0.387866
vt 0.722311 0.385401
vt 0.711903 0.374772
vt 0.709723 0.360076
vt 0.716547 0.346865
vt 0.729855 0.340197
vt 0.744562 0.342603
vt 0.755045 0.353230
vt 0.757290 0.368006
vt 0.750362 0.381239
vt 0.736702 0.386383
vt 0.722954 0.384043
vt 0.713278 0.374094
vt 0.711271 0.360332
vt 0.717555 0.347973
vt 0.730003 0.341699
vt 0.743811 0.343944
vt 0.753727 0.353905
vt 0.755858 0.367770
vt 0.749252 0.380183
s 1
usemtl crystal_controller2_group1_pasted__pCylinder5SG
f 10/10/1 1/1/2 11/11/3 20/20/4
f 11/11/3 1/1/2 2/2/5 12/12/6
f 12/12/6 2/2/5 3/3/7 13/13/8
f 13/13/8 3/3/7 4/4/9 14/14/10
f 14/14/10 4/4/9 5/5/11 15/15/12
f 15/15/12 5/5/11 6/6/13 16/16/14
f 16/16/14 6/6/13 7/7/15 17/17/16
f 17/17/16 7/7/15 8/8/17 18/18/18
f 18/18/18 8/8/17 9/9/19 19/19/20
f 19/19/20 9/9/19 10/10/1 20/20/4
f 20/20/4 11/11/3 21/21/21 30/30/22
f 21/21/21 11/11/3 12/12/6 22/22/23
f 22/22/23 12/12/6 13/13/8 23/23/24
f 23/23/24 13/13/8 14/14/10 24/24/25
f 24/24/25 14/14/10 15/15/12 25/25/26
f 25/25/26 15/15/12 16/16/14 26/26/27
f 26/26/27 16/16/14 17/17/16 27/27/28
f 27/27/28 17/17/16 18/18/18 28/28/29
f 28/28/29 18/18/18 19/19/20 29/29/30
f 29/29/30 19/19/20 20/20/4 30/30/22
f 113/113/31 21/21/21 22/22/23 114/114/32
f 114/114/32 22/22/23 23/23/24 115/115/33
f 115/115/33 23/23/24 24/24/25 116/116/34
f 116/116/34 24/24/25 25/25/26 117/117/35
f 117/117/35 25/25/26 26/26/27 118/118/36
f 118/118/36 26/26/27 27/27/28 119/119/37
f 119/119/37 27/27/28 28/28/29 120/120/38
f 120/120/38 28/28/29 29/29/30 121/121/39
f 121/121/39 29/29/30 30/30/22 112/112/40
f 112/112/40 30/30/22 21/21/21 113/113/31
f 31/31/41 32/32/42 107/107/43 108/108/44
f 32/32/42 33/33/45 106/106/46 107/107/43
f 33/33/45 34/34/47 105/105/48 106/106/46
f 34/34/47 35/35/49 104/104/50 105/105/48
f 35/35/49 36/36/51 103/103/52 104/104/50
f 36/36/51 37/37/53 102/102/54 103/103/52
f 37/37/53 38/38/55 111/111/56 102/102/54
f 38/38/55 39/39/57 110/110/58 111/111/56
f 39/39/57 40/40/59 109/109/60 110/110/58
f 40/40/59 31/31/41 108/108/44 109/109/60
f 42/42/61 41/41/62 108/108/44 107/107/43
f 43/43/63 42/42/61 107/107/43 106/106/46
f 44/44/64 43/43/63 106/106/46 105/105/48
f 45/45/65 44/44/64 105/105/48 104/104/50
f 46/46/66 45/45/65 104/104/50 103/103/52
f 47/47/67 46/46/66 103/103/52 102/102/54
f 48/48/68 47/47/67 102/102/54 111/111/56
f 49/49/69 48/48/68 111/111/56 110/110/58
f 50/50/70 49/49/69 110/110/58 109/109/60
f 41/41/62 50/50/70 109/109/60 108/108/44
f 41/41/62 42/42/61 51/51/71
f 42/42/61 43/43/63 51/51/71
f 43/43/63 44/44/64 51/51/71
f 44/44/64 45/45/65 51/51/71
f 45/45/65 46/46/66 51/51/71
f 46/46/66 47/47/67 51/51/71
f 47/47/67 48/48/68 51/51/71
f 48/48/68 49/49/69 51/51/71
f 49/49/69 50/50/70 51/51/71
f 50/50/70 41/41/62 51/51/71
f 52/52/72 101/101/73 92/92/74 53/53/75
f 53/53/75 92/92/74 93/93/76 54/54/77
f 54/54/77 93/93/76 94/94/78 55/55/79
f 55/55/79 94/94/78 95/95/80 56/56/81
f 56/56/81 95/95/80 96/96/82 57/57/83
f 57/57/83 96/96/82 97/97/84 58/58/85
f 58/58/85 97/97/84 98/98/86 59/59/87
f 59/59/87 98/98/86 99/99/88 60/60/89
f 60/60/89 99/99/88 100/100/90 61/61/91
f 61/61/91 100/100/90 101/101/73 52/52/72
f 58/58/85 59/59/87 64/64/92 67/67/93
f 57/57/83 58/58/85 67/67/93 70/70/94
f 56/56/81 57/57/83 70/70/94 73/73/95
f 55/55/79 56/56/81 73/73/95 76/76/96
f 54/54/77 55/55/79 76/76/96 79/79/97
f 53/53/75 54/54/77 79/79/97 82/82/98
f 52/52/72 53/53/75 82/82/98 85/85/99
f 61/61/91 52/52/72 85/85/99 88/88/100
f 60/60/89 61/61/91 88/88/100 91/91/101
f 59/59/87 60/60/89 91/91/101 64/64/92
f 63/63/102 62/62/103 65/65/104 66/66/105
f 67/67/93 64/64/92 63/63/102 66/66/105
f 62/62/103 63/63/102 90/90/106 89/89/107
f 63/63/102 64/64/92 91/91/101 90/90/106
f 70/70/94 67/67/93 66/66/105 69/69/108
f 66/66/105 65/65/104 68/68/109 69/69/108
f 73/73/95 70/70/94 69/69/108 72/72/110
f 69/69/108 68/68/109 71/71/111 72/72/110
f 76/76/96 73/73/95 72/72/110 75/75/112
f 72/72/110 71/71/111 74/74/113 75/75/112
f 79/79/97 76/76/96 75/75/112 78/78/114
f 75/75/112 74/74/113 77/77/115 78/78/114
f 82/82/98 79/79/97 78/78/114 81/81/116
f 78/78/114 77/77/115 80/80/117 81/81/116
f 85/85/99 82/82/98 81/81/116 84/84/118
f 81/81/116 80/80/117 83/83/119 84/84/118
f 88/88/100 85/85/99 84/84/118 87/87/120
f 84/84/118 83/83/119 86/86/121 87/87/120
f 91/91/101 88/88/100 87/87/120 90/90/106
f 87/87/120 86/86/121 89/89/107 90/90/106
f 38/38/55 37/37/53 92/92/74 101/101/73
f 93/93/76 92/92/74 37/37/53 36/36/51
f 94/94/78 93/93/76 36/36/51 35/35/49
f 95/95/80 94/94/78 35/35/49 34/34/47
f 96/96/82 95/95/80 34/34/47 33/33/45
f 97/97/84 96/96/82 33/33/45 32/32/42
f 98/98/86 97/97/84 32/32/42 31/31/41
f 99/99/88 98/98/86 31/31/41 40/40/59
f 100/100/90 99/99/88 40/40/59 39/39/57
f 101/101/73 100/100/90 39/39/57 38/38/55
f 122/122/122 112/112/40 113/113/31 123/123/123
f 123/123/123 113/113/31 114/114/32 124/124/124
f 124/124/124 114/114/32 115/115/33 125/125/125
f 125/125/125 115/115/33 116/116/34 126/126/126
f 126/126/126 116/116/34 117/117/35 127/127/127
f 127/127/127 117/117/35 118/118/36 128/128/128
f 128/128/128 118/118/36 119/119/37 129/129/129
f 129/129/129 119/119/37 120/120/38 130/130/130
f 130/130/130 120/120/38 121/121/39 131/131/131
f 131/131/131 121/121/39 112/112/40 122/122/122
f 122/122/122 123/123/123 65/65/104 62/62/103
f 123/123/123 124/124/124 68/68/109 65/65/104
f 124/124/124 125/125/125 71/71/111 68/68/109
f 125/125/125 126/126/126 74/74/113 71/71/111
f 126/126/126 127/127/127 77/77/115 74/74/113
f 127/127/127 128/128/128 80/80/117 77/77/115
f 83/83/119 80/80/117 128/128/128 129/129/129
f 129/129/129 130/130/130 86/86/121 83/83/119
f 130/130/130 131/131/131 89/89/107 86/86/121
f 131/131/131 122/122/122 62/62/103 89/89/107
