# Blender 3.4.1
# www.blender.org
mtllib crystal_controller_left_button5.mtl
o crystal_controller_left_button5
v 0.010960 -0.006676 0.039446
v 0.009134 -0.008100 0.037377
v 0.006181 -0.008644 0.036586
v 0.003228 -0.008100 0.037377
v 0.001403 -0.006676 0.039446
v 0.001403 -0.004913 0.042002
v 0.003228 -0.003489 0.044072
v 0.006181 -0.002945 0.044861
v 0.009134 -0.003489 0.044072
v 0.010960 -0.004913 0.042002
v 0.010960 0.001599 0.033745
v 0.009134 0.000175 0.031676
v 0.006181 -0.000370 0.030886
v 0.003228 0.000175 0.031676
v 0.001403 0.001599 0.033745
v 0.001403 0.003362 0.036302
v 0.003228 0.004786 0.038371
v 0.006181 0.005330 0.039162
v 0.009134 0.004786 0.038371
v 0.010960 0.003362 0.036302
v 0.007622 0.003409 0.033816
v 0.007072 0.002979 0.033192
v 0.006181 0.002815 0.032954
v 0.005291 0.002979 0.033192
v 0.004740 0.003409 0.033816
v 0.004740 0.003940 0.034587
v 0.005291 0.004369 0.035211
v 0.006181 0.004533 0.035450
v 0.007072 0.004369 0.035211
v 0.007622 0.003940 0.034587
v 0.006181 0.003716 0.034173
v 0.010797 0.002187 0.033405
v 0.009034 0.000810 0.031407
v 0.006181 0.000285 0.030643
v 0.003329 0.000810 0.031407
v 0.001566 0.002187 0.033405
v 0.001566 0.003889 0.035875
v 0.003329 0.005265 0.037873
v 0.006181 0.005791 0.038636
v 0.009034 0.005265 0.037873
v 0.010797 0.003889 0.035875
vn 0.9510 -0.1722 -0.2569
vn 0.9510 -0.1754 -0.2546
vn 0.5878 -0.4590 -0.6662
vn 0.5878 -0.4556 -0.6685
vn -0.0000 -0.5673 -0.8235
vn -0.0000 -0.5639 -0.8258
vn -0.5879 -0.4589 -0.6662
vn -0.5878 -0.4556 -0.6685
vn -0.9510 -0.1753 -0.2545
vn -0.9511 -0.1720 -0.2567
vn -0.9511 0.1753 0.2545
vn -0.9510 0.1786 0.2523
vn -0.5877 0.4590 0.6663
vn -0.5878 0.4623 0.6639
vn -0.0000 0.5673 0.8235
vn -0.0000 0.5706 0.8212
vn 0.5876 0.4590 0.6663
vn 0.5878 0.4623 0.6639
vn 0.9512 0.1751 0.2542
vn 0.9510 0.1786 0.2522
vn 0.0915 0.7647 -0.6379
vn 0.1153 0.7833 -0.6109
vn 0.8764 0.1583 -0.4549
vn 0.3360 0.4135 -0.8462
vn 0.0202 0.7441 -0.6678
vn -0.0000 0.3516 -0.9361
vn -0.0587 0.7512 -0.6575
vn -0.3360 0.4134 -0.8463
vn -0.1153 0.7833 -0.6109
vn -0.5435 0.5756 -0.6109
vn -0.1278 0.8281 -0.5458
vn -0.5435 0.7760 -0.3200
vn -0.0915 0.8685 -0.4872
vn -0.3358 0.9381 -0.0847
vn -0.0202 0.8891 -0.4573
vn -0.0000 1.0000 0.0052
vn 0.0587 0.8820 -0.4676
vn 0.3359 0.9381 -0.0847
vn 0.1153 0.8499 -0.5141
vn 0.5434 0.7761 -0.3200
vn -0.0000 0.8237 -0.5670
vt 0.437634 0.715351
vt 0.417638 0.735307
vt 0.389744 0.739681
vt 0.364623 0.726819
vt 0.351871 0.701691
vt 0.356251 0.673921
vt 0.376177 0.653940
vt 0.404059 0.649488
vt 0.429229 0.662286
vt 0.442061 0.687444
vt 0.415699 0.706296
vt 0.405242 0.715016
vt 0.391684 0.715968
vt 0.380218 0.708733
vt 0.375483 0.696146
vt 0.378457 0.683030
vt 0.388724 0.674076
vt 0.402340 0.673170
vt 0.413880 0.680432
vt 0.418996 0.693072
vt 0.411294 0.936631
vt 0.417120 0.945716
vt 0.427174 0.949640
vt 0.437615 0.946906
vt 0.444454 0.938557
vt 0.445080 0.927782
vt 0.439253 0.918698
vt 0.429199 0.914773
vt 0.418759 0.917508
vt 0.411919 0.925857
vt 0.428187 0.932207
vt 0.372661 0.946717
vt 0.413455 0.704905
vt 0.391795 0.976583
vt 0.404218 0.712535
vt 0.424829 0.989499
vt 0.392330 0.713310
vt 0.459146 0.980531
vt 0.382301 0.706962
vt 0.481637 0.953104
vt 0.378130 0.695839
vt 0.483713 0.917696
vt 0.380618 0.683016
vt 0.464579 0.887830
vt 0.389781 0.676525
vt 0.431545 0.874915
vt 0.401711 0.675828
vt 0.397228 0.883883
vt 0.411835 0.682161
vt 0.374736 0.911309
vt 0.416325 0.693266
s 1
usemtl crystal_controller2_group1_pasted__pCylinder5SG
f 11/11/1 1/1/2 2/2/3 12/12/4
f 12/12/4 2/2/3 3/3/5 13/13/6
f 13/13/6 3/3/5 4/4/7 14/14/8
f 14/14/8 4/4/7 5/5/9 15/15/10
f 15/15/10 5/5/9 6/6/11 16/16/12
f 16/16/12 6/6/11 7/7/13 17/17/14
f 17/17/14 7/7/13 8/8/15 18/18/16
f 18/18/16 8/8/15 9/9/17 19/19/18
f 19/19/18 9/9/17 10/10/19 20/20/20
f 20/20/20 10/10/19 1/1/2 11/11/1
f 22/22/21 21/21/22 32/32/23 33/34/24
f 23/23/25 22/22/21 33/34/24 34/36/26
f 24/24/27 23/23/25 34/36/26 35/38/28
f 25/25/29 24/24/27 35/38/28 36/40/30
f 26/26/31 25/25/29 36/40/30 37/42/32
f 27/27/33 26/26/31 37/42/32 38/44/34
f 28/28/35 27/27/33 38/44/34 39/46/36
f 29/29/37 28/28/35 39/46/36 40/48/38
f 30/30/39 29/29/37 40/48/38 41/50/40
f 21/21/22 30/30/39 41/50/40 32/32/23
f 31/31/41 21/21/22 22/22/21
f 31/31/41 22/22/21 23/23/25
f 31/31/41 23/23/25 24/24/27
f 31/31/41 24/24/27 25/25/29
f 31/31/41 25/25/29 26/26/31
f 31/31/41 26/26/31 27/27/33
f 31/31/41 27/27/33 28/28/35
f 31/31/41 28/28/35 29/29/37
f 31/31/41 29/29/37 30/30/39
f 31/31/41 30/30/39 21/21/22
f 32/33/23 11/11/1 12/12/4 33/35/24
f 33/35/24 12/12/4 13/13/6 34/37/26
f 34/37/26 13/13/6 14/14/8 35/39/28
f 35/39/28 14/14/8 15/15/10 36/41/30
f 36/41/30 15/15/10 16/16/12 37/43/32
f 37/43/32 16/16/12 17/17/14 38/45/34
f 38/45/34 17/17/14 18/18/16 39/47/36
f 39/47/36 18/18/16 19/19/18 40/49/38
f 40/49/38 19/19/18 20/20/20 41/51/40
f 20/20/20 11/11/1 32/33/23 41/51/40
