# Blender 3.4.1
# www.blender.org
mtllib crystal_controller_left_button6.mtl
o crystal_controller_left_button6
v 0.005305 -0.015582 0.073795
v 0.009246 -0.012416 0.074501
v 0.011968 -0.006030 0.076719
v 0.013000 0.000338 0.078752
v 0.013060 0.004216 0.079148
v 0.013121 0.004890 0.073461
v 0.003871 -0.014163 0.066230
v 0.007885 -0.010935 0.067130
v 0.011814 -0.004719 0.069281
v 0.013375 0.001773 0.071531
v -0.005517 -0.013216 0.064693
v -0.001713 -0.010834 0.065274
v 0.003263 -0.003016 0.067803
v 0.004671 0.004300 0.070710
v 0.003735 0.007617 0.074258
v 0.003713 0.006275 0.081805
v 0.004536 0.001399 0.083536
v 0.003461 -0.005713 0.081265
v 0.000681 -0.013277 0.078574
v -0.003201 -0.015665 0.078079
v -0.007748 -0.013349 0.066329
v -0.005789 -0.014873 0.075339
v 0.002932 -0.013935 0.063588
v 0.006736 -0.011553 0.064169
v 0.011712 -0.003735 0.066699
v 0.013120 0.003580 0.069606
v 0.012184 0.006898 0.073153
v 0.012161 0.005555 0.080701
v 0.012985 0.000680 0.082431
v 0.011910 -0.006433 0.080161
v 0.009129 -0.013996 0.077470
v 0.005247 -0.016384 0.076975
v 0.002479 -0.015515 0.074017
v 0.000896 -0.014140 0.066081
v 0.004316 -0.014109 0.063903
v 0.008096 -0.011176 0.064761
v 0.012491 -0.004171 0.067073
v 0.014023 0.002628 0.069643
v 0.013263 0.006132 0.072887
v 0.013208 0.005009 0.080386
v 0.013783 -0.000235 0.081655
v 0.012693 -0.006677 0.079491
v 0.010209 -0.013457 0.077016
v 0.006404 -0.016369 0.076459
v 0.001602 -0.013979 0.064052
v -0.006847 -0.013248 0.064929
v -0.004452 -0.015631 0.078001
v 0.003707 -0.016328 0.076857
v 0.003236 0.008017 0.078206
v 0.011685 0.007297 0.077101
v 0.012749 0.006772 0.076805
v 0.012818 0.005215 0.076407
v 0.012823 0.001112 0.075031
v 0.011566 -0.005243 0.072864
v 0.008242 -0.011376 0.070853
v 0.004295 -0.014690 0.070091
v 0.001171 -0.014697 0.070299
v -0.007261 -0.013947 0.071109
vn 0.9818 -0.0364 -0.1865
vn 0.9823 0.0791 -0.1701
vn 0.9777 0.1496 -0.1476
vn 0.9595 -0.0185 -0.2811
vn 0.9512 -0.1330 -0.2784
vn 0.9516 -0.1844 -0.2459
vn 0.8336 -0.3380 -0.4368
vn 0.8277 -0.3660 -0.4254
vn 0.1449 -0.9324 -0.3311
vn 0.1509 -0.9352 -0.3203
vn -0.1096 -0.9702 -0.2161
vn -0.0819 -0.9847 -0.1537
vn 0.4110 -0.8807 -0.2355
vn 0.8027 -0.5588 -0.2084
vn 0.9452 -0.3114 -0.0981
vn 0.9919 -0.1272 -0.0058
vn 0.9999 -0.0016 0.0155
vn 0.1993 -0.9795 0.0291
vn 0.7223 -0.6731 0.1589
vn 0.7386 -0.6736 0.0265
vn 0.2265 -0.9730 -0.0441
vn 0.8915 -0.4210 0.1673
vn 0.9100 -0.3989 0.1133
vn 0.9591 -0.1510 0.2395
vn 0.9609 -0.1643 0.2230
vn 0.9774 0.0298 0.2092
vn 0.9791 -0.0057 0.2034
vn -0.1221 0.0845 -0.9889
vn -0.0779 0.4512 -0.8890
vn -0.1006 -0.9770 -0.1880
vn -0.0984 -0.9760 -0.1942
vn -0.0914 0.3548 -0.9305
vn -0.0907 0.3601 -0.9285
vn -0.0907 0.3602 -0.9285
vn -0.0675 0.5174 -0.8531
vn -0.0697 0.5039 -0.8609
vn 0.0261 0.9172 -0.3976
vn 0.0204 0.9020 -0.4313
vn 0.1085 0.9747 0.1952
vn 0.1469 0.9762 0.1597
vn 0.1500 0.7173 0.6804
vn 0.1509 0.6993 0.6987
vn 0.1239 -0.0651 0.9902
vn 0.1230 -0.0747 0.9896
vn 0.0906 -0.3608 0.9282
vn 0.0907 -0.3608 0.9282
vn 0.0914 -0.3550 0.9304
vn 0.0905 -0.3613 0.9280
vn 0.0668 -0.5068 0.8595
vn 0.0952 -0.3251 0.9409
vn -0.1116 -0.9690 -0.2203
vn -0.1122 -0.9686 -0.2219
vn -0.1091 -0.9711 -0.2123
vn -0.0999 -0.9845 -0.1444
vn -0.0934 -0.9922 -0.0824
vn -0.0937 -0.9921 -0.0839
vn 0.8160 0.5717 0.0859
vt 0.091312 0.763897
vt 0.087218 0.744581
vt 0.085900 0.719128
vt 0.081636 0.696496
vt 0.076571 0.683894
vt 0.058098 0.690060
vt 0.061964 0.772037
vt 0.058677 0.752758
vt 0.056396 0.726098
vt 0.056120 0.702451
vt 0.049781 0.805062
vt 0.034300 0.786311
vt 0.011818 0.731361
vt 0.021694 0.681384
vt 0.039620 0.656885
vt 0.085920 0.647344
vt 0.113240 0.667307
vt 0.132590 0.710558
vt 0.125162 0.762161
vt 0.120130 0.785499
vt 0.057759 0.815443
vt 0.107997 0.802548
vt 0.051637 0.774343
vt 0.045611 0.759098
vt 0.041511 0.725348
vt 0.044759 0.697996
vt 0.052219 0.682102
vt 0.079922 0.674985
vt 0.094224 0.687364
vt 0.102122 0.712877
vt 0.102230 0.743442
vt 0.103500 0.759530
vt 0.095293 0.774122
vt 0.061206 0.783032
vt 0.053185 0.770339
vt 0.049423 0.754591
vt 0.046817 0.725688
vt 0.048546 0.701687
vt 0.054379 0.687012
vt 0.079318 0.679616
vt 0.091756 0.692562
vt 0.097271 0.715062
vt 0.097836 0.741110
vt 0.100358 0.757007
vt 0.052991 0.779217
vt 0.050553 0.810298
vt 0.121182 0.790453
vt 0.104948 0.764818
vt 0.061263 0.646233
vt 0.064956 0.674377
vt 0.065522 0.679110
vt 0.066653 0.684704
vt 0.068589 0.699902
vt 0.070581 0.723379
vt 0.072886 0.749346
vt 0.077091 0.769708
vt 0.079668 0.781835
vt 0.084817 0.813952
s 1
usemtl crystal_controller2_group1_pasted__pCylinder5SG
f 4/4/1 5/5/2 40/40/3 41/41/4
f 41/41/4 42/42/5 3/3/6 4/4/1
f 42/42/5 43/43/7 2/2/8 3/3/6
f 43/43/7 44/44/9 1/1/10 2/2/8
f 33/33/11 57/57/12 56/56/13 1/1/10
f 55/55/14 2/2/8 1/1/10 56/56/13
f 54/54/15 3/3/6 2/2/8 55/55/14
f 53/53/16 4/4/1 3/3/6 54/54/15
f 52/52/17 5/5/2 4/4/1 53/53/16
f 35/35/18 36/36/19 8/8/20 7/7/21
f 36/36/19 37/37/22 9/9/23 8/8/20
f 37/37/22 38/38/24 10/10/25 9/9/23
f 38/38/24 39/39/26 6/6/27 10/10/25
f 11/11/28 23/23/29 45/45/30 46/46/31
f 12/12/32 24/24/33 23/23/29 11/11/28
f 13/13/34 25/25/34 24/24/33 12/12/32
f 14/14/35 26/26/36 25/25/34 13/13/34
f 15/15/37 27/27/38 26/26/36 14/14/35
f 49/49/39 50/50/40 27/27/38 15/15/37
f 16/16/41 28/28/42 50/50/40 49/49/39
f 17/17/43 29/29/44 28/28/42 16/16/41
f 18/18/45 30/30/46 29/29/44 17/17/43
f 19/19/47 31/31/48 30/30/46 18/18/45
f 20/20/49 32/32/50 31/31/48 19/19/47
f 47/47/51 48/48/52 32/32/50 20/20/49
f 33/33/11 48/48/52 47/47/51 22/22/53
f 58/58/54 57/57/12 33/33/11 22/22/53
f 46/46/31 45/45/30 34/34/55 21/21/56
f 44/44/9 48/48/52 33/33/11 1/1/10
f 35/35/18 45/45/30 23/23/29
f 24/24/33 36/36/19 35/35/18 23/23/29
f 25/25/34 37/37/22 36/36/19 24/24/33
f 26/26/36 38/38/24 37/37/22 25/25/34
f 27/27/38 39/39/26 38/38/24 26/26/36
f 50/50/40 51/51/57 39/39/26 27/27/38
f 28/28/42 40/40/3 51/51/57 50/50/40
f 29/29/44 41/41/4 40/40/3 28/28/42
f 30/30/46 42/42/5 41/41/4 29/29/44
f 31/31/48 43/43/7 42/42/5 30/30/46
f 32/32/50 44/44/9 43/43/7 31/31/48
f 44/44/9 32/32/50 48/48/52
f 51/51/57 52/52/17 6/6/27 39/39/26
f 40/40/3 5/5/2 52/52/17 51/51/57
f 35/35/18 7/7/21 34/34/55 45/45/30
f 6/6/27 52/52/17 53/53/16 10/10/25
f 10/10/25 53/53/16 54/54/15 9/9/23
f 9/9/23 54/54/15 55/55/14 8/8/20
f 8/8/20 55/55/14 56/56/13 7/7/21
f 57/57/12 34/34/55 7/7/21 56/56/13
f 21/21/56 34/34/55 57/57/12 58/58/54
