# Blender 3.4.1
# www.blender.org
mtllib crystal_controller_left_button1.mtl
o crystal_controller_left_button1
v 0.019119 0.000676 0.052241
v 0.016661 -0.000337 0.050770
v 0.013623 -0.000337 0.050770
v 0.011165 0.000676 0.052241
v 0.010226 0.002316 0.054621
v 0.011165 0.003954 0.057000
v 0.013623 0.004967 0.058471
v 0.016661 0.004967 0.058471
v 0.019119 0.003954 0.057000
v 0.020058 0.002316 0.054621
v 0.017633 0.009157 0.047710
v 0.016093 0.008523 0.046790
v 0.014191 0.008523 0.046790
v 0.012651 0.009157 0.047710
v 0.012063 0.010184 0.049201
v 0.012651 0.011211 0.050690
v 0.014191 0.011845 0.051611
v 0.016093 0.011845 0.051611
v 0.017633 0.011211 0.050690
v 0.018221 0.010184 0.049201
v 0.015142 0.010060 0.049286
v 0.019119 0.008634 0.046759
v 0.018983 0.008808 0.046760
v 0.016661 0.007621 0.045288
v 0.016609 0.007830 0.045340
v 0.013623 0.007621 0.045288
v 0.013675 0.007830 0.045340
v 0.011165 0.008634 0.046759
v 0.011302 0.008808 0.046760
v 0.010226 0.010274 0.049139
v 0.010395 0.010391 0.049058
v 0.011165 0.011912 0.051519
v 0.011302 0.011973 0.051356
v 0.013623 0.012926 0.052989
v 0.013675 0.012952 0.052776
v 0.016661 0.012926 0.052989
v 0.016609 0.012952 0.052776
v 0.019119 0.011912 0.051519
v 0.018983 0.011973 0.051356
v 0.020058 0.010274 0.049139
v 0.019889 0.010391 0.049058
vn -0.0943 0.8567 -0.5071
vn -0.0000 0.8234 -0.5674
vn -0.1166 0.8179 -0.5634
vn -0.0360 0.8808 -0.4721
vn 0.0360 0.8808 -0.4721
vn 0.0943 0.8568 -0.5070
vn 0.1166 0.8179 -0.5635
vn 0.0942 0.7790 -0.6199
vn 0.0360 0.7551 -0.6547
vn -0.0360 0.7551 -0.6546
vn -0.0942 0.7790 -0.6199
vn 0.0009 0.8235 -0.5673
vn 0.0008 0.8233 -0.5676
vn 0.0005 0.8231 -0.5679
vn -0.0005 0.8230 -0.5680
vn -0.0008 0.8232 -0.5677
vn -0.0009 0.8235 -0.5673
vn -0.0008 0.8238 -0.5669
vn -0.0005 0.8240 -0.5666
vn 0.0005 0.8239 -0.5667
vn 0.0009 0.8237 -0.5670
vn 0.8090 -0.3215 -0.4921
vn 0.9999 0.0119 -0.0082
vn 0.3090 -0.5276 -0.7913
vn -0.3090 -0.5276 -0.7913
vn -0.8089 -0.3216 -0.4922
vn -0.9999 0.0119 -0.0082
vn -0.8089 0.3453 0.4759
vn -0.3090 0.5513 0.7750
vn 0.3090 0.5513 0.7750
vn 0.8090 0.3452 0.4757
vn 1.0000 -0.0000 0.0001
vn 0.8090 -0.3334 -0.4840
vn 0.3091 -0.5395 -0.7832
vn -0.3091 -0.5395 -0.7832
vn -0.8090 -0.3334 -0.4840
vn -1.0000 -0.0000 0.0001
vn -0.8090 0.3334 0.4841
vn -0.3090 0.5395 0.7832
vn 0.3090 0.5395 0.7832
vn 0.8090 0.3334 0.4841
vt 0.531924 0.788865
vt 0.505290 0.784648
vt 0.486223 0.765580
vt 0.482004 0.738947
vt 0.494246 0.714921
vt 0.518272 0.702679
vt 0.544905 0.706897
vt 0.563972 0.725964
vt 0.568191 0.752597
vt 0.555949 0.776623
vt 0.149392 0.953070
vt 0.166582 0.965765
vt 0.187952 0.965932
vt 0.205338 0.953505
vt 0.212100 0.933233
vt 0.205655 0.912858
vt 0.188464 0.900163
vt 0.167095 0.899997
vt 0.149709 0.912423
vt 0.142947 0.932695
vt 0.177523 0.932964
vt 0.524285 0.766032
vt 0.133987 0.964073
vt 0.524371 0.763792
vt 0.512531 0.761685
vt 0.160587 0.983722
vt 0.513918 0.759924
vt 0.505577 0.751261
vt 0.193656 0.983983
vt 0.507734 0.750650
vt 0.506080 0.738739
vt 0.220563 0.964756
vt 0.508184 0.739514
vt 0.513847 0.728905
vt 0.231030 0.933387
vt 0.515093 0.730768
vt 0.525910 0.725513
vt 0.221059 0.901855
vt 0.525823 0.727753
vt 0.537663 0.729859
vt 0.194459 0.882207
vt 0.536277 0.731620
vt 0.544616 0.740284
vt 0.161390 0.881946
vt 0.542460 0.740894
vt 0.544113 0.752805
vt 0.134484 0.901172
vt 0.542009 0.752030
vt 0.536347 0.762640
vt 0.124017 0.932542
vt 0.535101 0.760777
s 1
usemtl crystal_controller2_group1_pasted__pCylinder5SG
f 11/11/1 21/21/2 20/20/3
f 21/21/2 11/11/1 12/12/4
f 21/21/2 12/12/4 13/13/5
f 21/21/2 13/13/5 14/14/6
f 21/21/2 14/14/6 15/15/7
f 21/21/2 15/15/7 16/16/8
f 21/21/2 16/16/8 17/17/9
f 21/21/2 17/17/9 18/18/10
f 21/21/2 18/18/10 19/19/11
f 21/21/2 19/19/11 20/20/3
f 41/50/12 23/23/13 11/11/1 20/20/3
f 12/12/4 11/11/1 23/23/13 25/26/14
f 13/13/5 12/12/4 25/26/14 27/29/15
f 14/14/6 13/13/5 27/29/15 29/32/16
f 15/15/7 14/14/6 29/32/16 31/35/17
f 16/16/8 15/15/7 31/35/17 33/38/18
f 17/17/9 16/16/8 33/38/18 35/41/19
f 18/18/10 17/17/9 35/41/19 37/44/20
f 19/19/11 18/18/10 37/44/20 39/47/21
f 20/20/3 19/19/11 39/47/21 41/50/12
f 22/22/22 23/24/13 41/51/12 40/49/23
f 23/24/13 22/22/22 24/25/24 25/27/14
f 25/27/14 24/25/24 26/28/25 27/30/15
f 27/30/15 26/28/25 28/31/26 29/33/16
f 29/33/16 28/31/26 30/34/27 31/36/17
f 31/36/17 30/34/27 32/37/28 33/39/18
f 33/39/18 32/37/28 34/40/29 35/42/19
f 35/42/19 34/40/29 36/43/30 37/45/20
f 37/45/20 36/43/30 38/46/31 39/48/21
f 39/48/21 38/46/31 40/49/23 41/51/12
f 10/10/32 1/1/33 22/22/22 40/49/23
f 24/25/24 22/22/22 1/1/33 2/2/34
f 26/28/25 24/25/24 2/2/34 3/3/35
f 28/31/26 26/28/25 3/3/35 4/4/36
f 30/34/27 28/31/26 4/4/36 5/5/37
f 32/37/28 30/34/27 5/5/37 6/6/38
f 34/40/29 32/37/28 6/6/38 7/7/39
f 36/43/30 34/40/29 7/7/39 8/8/40
f 38/46/31 36/43/30 8/8/40 9/9/41
f 40/49/23 38/46/31 9/9/41 10/10/32
