# Blender 3.4.1
# www.blender.org
mtllib status_left.mtl
o status_left
v -0.016296 0.014999 0.092332
v -0.013833 0.015103 0.104750
v -0.011909 0.014129 0.116186
v -0.006035 0.021138 0.102793
v -0.004322 0.020065 0.114244
v -0.007897 0.021043 0.090948
v 0.000321 0.020953 0.090142
v 0.001787 0.020109 0.101393
v 0.005712 0.014299 0.090855
v 0.006963 0.013676 0.101966
v 0.003154 0.019206 0.113225
v 0.008047 0.012931 0.113642
vn -0.7863 0.5713 0.2351
vn -0.5794 0.7895 0.2024
vn -0.5814 0.8027 0.1329
vn -0.7923 0.5876 0.1644
vn -0.7926 0.5856 0.1698
vn -0.5849 0.8020 0.1211
vn -0.5846 0.8082 0.0716
vn -0.8010 0.5879 0.1132
vn 0.5009 0.8648 0.0358
vn 0.4801 0.8767 -0.0300
vn 0.1015 0.9940 0.0408
vn 0.1341 0.9854 0.1052
vn 0.4987 0.8659 0.0389
vn 0.8695 0.4927 -0.0357
vn 0.8722 0.4832 -0.0763
vn 0.4895 0.8718 -0.0199
vn 0.5264 0.8503 0.0043
vn 0.8930 0.4481 -0.0419
vn 0.8684 0.4903 -0.0735
vn 0.4666 0.8844 -0.0138
vn 0.4680 0.8836 -0.0126
vn 0.4255 0.9031 -0.0577
vn 0.0356 0.9994 -0.0047
vn 0.0918 0.9949 0.0423
vt 0.000431 1.000520
vt 0.000034 0.500509
vt -0.000398 0.000536
vt 0.327165 0.499561
vt 0.324093 0.000159
vt 0.323472 0.999862
vt 0.676299 0.999640
vt 0.678182 0.500678
vt 1.000393 0.999643
vt 0.999996 0.499608
vt 0.676456 0.000038
vt 0.999591 -0.000277
s 0
usemtl status
f 3/3/1 5/5/2 4/4/3 2/2/4
f 2/2/5 4/4/6 6/6/7 1/1/8
f 11/11/9 8/8/10 4/4/11 5/5/12
f 11/11/13 12/12/14 10/10/15 8/8/16
f 8/8/17 10/10/18 9/9/19 7/7/20
f 8/8/21 7/7/22 6/6/23 4/4/24
